<?xml version="1.0" standalone="no"?>
<svg xmlns:xlink="http://www.w3.org/1999/xlink" id="wave" style="transform:rotate(0deg); transition: 0.3s" viewBox="0 0 1440 110" version="1.1" xmlns="http://www.w3.org/2000/svg"><defs><linearGradient id="sw-gradient-0" x1="0" x2="0" y1="1" y2="0"><stop stop-color="rgba(248, 198, 0, 1)" offset="0%"/><stop stop-color="rgba(255, 179, 11, 1)" offset="100%"/></linearGradient></defs><path style="transform:translate(0, 0px); opacity:1" fill="url(#sw-gradient-0)" d="M0,11L34.3,12.8C68.6,15,137,18,206,29.3C274.3,40,343,59,411,58.7C480,59,549,40,617,40.3C685.7,40,754,59,823,56.8C891.4,55,960,33,1029,27.5C1097.1,22,1166,33,1234,44C1302.9,55,1371,66,1440,66C1508.6,66,1577,55,1646,53.2C1714.3,51,1783,59,1851,55C1920,51,1989,37,2057,42.2C2125.7,48,2194,73,2263,77C2331.4,81,2400,62,2469,60.5C2537.1,59,2606,73,2674,66C2742.9,59,2811,29,2880,14.7C2948.6,0,3017,0,3086,5.5C3154.3,11,3223,22,3291,38.5C3360,55,3429,77,3497,86.2C3565.7,95,3634,92,3703,82.5C3771.4,73,3840,59,3909,58.7C3977.1,59,4046,73,4114,71.5C4182.9,70,4251,51,4320,49.5C4388.6,48,4457,62,4526,60.5C4594.3,59,4663,40,4731,38.5C4800,37,4869,51,4903,58.7L4937.1,66L4937.1,110L4902.9,110C4868.6,110,4800,110,4731,110C4662.9,110,4594,110,4526,110C4457.1,110,4389,110,4320,110C4251.4,110,4183,110,4114,110C4045.7,110,3977,110,3909,110C3840,110,3771,110,3703,110C3634.3,110,3566,110,3497,110C3428.6,110,3360,110,3291,110C3222.9,110,3154,110,3086,110C3017.1,110,2949,110,2880,110C2811.4,110,2743,110,2674,110C2605.7,110,2537,110,2469,110C2400,110,2331,110,2263,110C2194.3,110,2126,110,2057,110C1988.6,110,1920,110,1851,110C1782.9,110,1714,110,1646,110C1577.1,110,1509,110,1440,110C1371.4,110,1303,110,1234,110C1165.7,110,1097,110,1029,110C960,110,891,110,823,110C754.3,110,686,110,617,110C548.6,110,480,110,411,110C342.9,110,274,110,206,110C137.1,110,69,110,34,110L0,110Z"/></svg>