<?xml version="1.0" standalone="no"?>
<svg xmlns:xlink="http://www.w3.org/1999/xlink" id="wave" style="transform:rotate(0deg); transition: 0.3s" viewBox="0 0 1440 100" version="1.1" xmlns="http://www.w3.org/2000/svg"><defs><linearGradient id="sw-gradient-0" x1="0" x2="0" y1="1" y2="0"><stop stop-color="rgba(255, 212, 45, 1)" offset="0%"/><stop stop-color="rgba(255, 212, 45, 1)" offset="100%"/></linearGradient></defs><path style="transform:translate(0, 0px); opacity:1" fill="url(#sw-gradient-0)" d="M0,80L40,68.3C80,57,160,33,240,35C320,37,400,63,480,66.7C560,70,640,50,720,41.7C800,33,880,37,960,46.7C1040,57,1120,73,1200,70C1280,67,1360,43,1440,33.3C1520,23,1600,27,1680,23.3C1760,20,1840,10,1920,18.3C2000,27,2080,53,2160,65C2240,77,2320,73,2400,73.3C2480,73,2560,77,2640,65C2720,53,2800,27,2880,26.7C2960,27,3040,53,3120,55C3200,57,3280,33,3360,30C3440,27,3520,43,3600,50C3680,57,3760,53,3840,56.7C3920,60,4000,70,4080,61.7C4160,53,4240,27,4320,28.3C4400,30,4480,60,4560,66.7C4640,73,4720,57,4800,45C4880,33,4960,27,5040,35C5120,43,5200,67,5280,71.7C5360,77,5440,63,5520,53.3C5600,43,5680,37,5720,33.3L5760,30L5760,100L5720,100C5680,100,5600,100,5520,100C5440,100,5360,100,5280,100C5200,100,5120,100,5040,100C4960,100,4880,100,4800,100C4720,100,4640,100,4560,100C4480,100,4400,100,4320,100C4240,100,4160,100,4080,100C4000,100,3920,100,3840,100C3760,100,3680,100,3600,100C3520,100,3440,100,3360,100C3280,100,3200,100,3120,100C3040,100,2960,100,2880,100C2800,100,2720,100,2640,100C2560,100,2480,100,2400,100C2320,100,2240,100,2160,100C2080,100,2000,100,1920,100C1840,100,1760,100,1680,100C1600,100,1520,100,1440,100C1360,100,1280,100,1200,100C1120,100,1040,100,960,100C880,100,800,100,720,100C640,100,560,100,480,100C400,100,320,100,240,100C160,100,80,100,40,100L0,100Z"/></svg>